# xmcd CD database file
# Copyright (C) 1997 Ti Kan
# 
# Track frame offsets:
#     150
#     12503
#     31532
#     45860
#     60038
#     75330
#     91665
#     111380
#     129060
#     146318
#     158755
# 
# Disc length: 2307 seconds
# 
# Revision: 1
# Processed by: cddbd v1.4b41PL1 Copyright (c) Steve Scherf et al.
# Submitted via: DiscPlay 4.0.4
# 
DISCID=6609010b
DTITLE=Alberta Hunter - The Glory of Alberta Hunter
DYEAR=1900
DGENRE=
TTITLE0=Ezequiel Saw The Wheel
TTITLE1=I've Had Enough (Alberta's Blues)
TTITLE2=Wrap Your Troubles In Dreams
TTITLE3=Some of These Days
TTITLE4=The Glory of Love
TTITLE5=You Can't Tell The Difference After Dark
TTITLE6=I Love You Much Too Much
TTITLE7=I Cried For You
TTITLE8=The Love I Have For You
TTITLE9=Sometimes I'm Happy
TTITLE10=Give Me That Old Time Religion
EXTD=
EXTT0=
EXTT1=
EXTT2=
EXTT3=
EXTT4=
EXTT5=
EXTT6=
EXTT7=
EXTT8=
EXTT9=
EXTT10=
PLAYORDER=
